<svg aria-hidden="true" style="position: absolute; width: 0; height: 0; overflow: hidden;" version="1.1" xmlns="http://www.w3.org/2000/svg" xmlns:xlink="http://www.w3.org/1999/xlink">
<defs>
<symbol id="icon-logo" viewBox="0 0 32 32">
<path d="M15.557 18.557c0.181 3.691 2.86 4.162 5.358 7.264 3.695 4.434 6.668 3.117 7.173-0.081 0.477-3.073-2.121-5.266-2.292-8.55s2.271-6.254 1.525-9.188c-0.746-2.934-3.823-3.4-7.096 1.989-2.209 3.718-4.756 4.905-4.667 8.566z"></path>
<path d="M9.969 9.458c2.092 1.699 4.582 1.093 5.467-0.778s-0.185-5.15-2.302-6.731c-2.092-1.699-4.582-1.093-5.467 0.778-0.859 1.752 0.211 5.032 2.302 6.731z"></path>
<path d="M4.798 18.931c2.467 0.132 4.711-1.56 4.987-4.028 0.248-2.343-1.527-4.403-4.077-4.562-2.467-0.132-4.711 1.56-4.987 4.028-0.248 2.343 1.61 4.43 4.077 4.562z"></path>
<path d="M5.971 30.71c2.242 0.049 4.48-1.872 4.788-4.366 0.279-2.367-1.157-5.012-3.473-5.085-2.242-0.049-4.48 1.872-4.788 4.366-0.279 2.367 1.232 5.037 3.473 5.085z"></path>
</symbol>
<symbol id="icon-cost" viewBox="0 0 73 32">
<path d="M72.673 13.749c0.834-1.892 0.379-4.677 0-6.753-0.295-1.765-1.027-3.222-2.124-4.502s-2.718-1.886-4.247-2.251c-1.214-0.314-3.038-0.336-4.247 0s-1.168 1.335-2.124 2.251c-2.383 2.173-5.455 2.326-8.494 2.251h-29.731c-3.039 0.076-6.112-0.078-8.494-2.251-0.956-0.916-0.914-1.915-2.124-2.251s-3.034-0.314-4.247 0c-1.529 0.365-3.151 0.971-4.247 2.251s-1.828 2.737-2.124 4.502c-0.38 2.076-0.834 4.861 0 6.753 0.302 0.681 2.124 1.486 2.124 2.251s-1.821 1.57-2.124 2.251c-0.832 1.892-0.378 4.677 0 6.753 0.296 1.766 1.028 3.22 2.124 4.502s2.718 1.882 4.247 2.251c1.214 0.313 3.038 0.336 4.247 0s1.168-1.335 2.124-2.251c2.382-2.176 5.454-2.322 8.494-2.251h29.731c3.040-0.071 6.113 0.075 8.494 2.251 0.956 0.916 0.914 1.915 2.124 2.251s3.034 0.313 4.247 0c1.529-0.369 3.151-0.969 4.247-2.251s1.828-2.736 2.124-4.502c0.378-2.076 0.832-4.861 0-6.753-0.302-0.681-2.124-1.486-2.124-2.251s1.822-1.57 2.124-2.251z"></path>
</symbol>
<symbol id="icon-untitled" viewBox="0 0 260 32">
<path d="M50 16c0 8.837-7.163 16-16 16s-16-7.163-16-16c0-8.837 7.163-16 16-16s16 7.163 16 16z"></path>
<path d="M146 16c0 8.837-7.163 16-16 16s-16-7.163-16-16c0-8.837 7.163-16 16-16s16 7.163 16 16z"></path>
<path d="M242 16c0 8.837-7.163 16-16 16s-16-7.163-16-16c0-8.837 7.163-16 16-16s16 7.163 16 16z"></path>
</symbol>
<symbol id="icon-Property-1active" viewBox="0 0 32 32">
<path d="M32 16c0 8.837-7.163 16-16 16s-16-7.163-16-16c0-8.837 7.163-16 16-16s16 7.163 16 16z"></path>
<path d="M21.605 16.514c0.284-0.284 0.284-0.745 0-1.028l-4.628-4.628c-0.284-0.284-0.744-0.284-1.028 0s-0.284 0.745 0 1.028l4.114 4.114-4.114 4.114c-0.284 0.284-0.284 0.744 0 1.029s0.745 0.284 1.028 0l4.628-4.628zM9.455 16.727h11.636v-1.455h-11.636v1.455z"></path>
</symbol>
<symbol id="icon-Property-1active1" viewBox="0 0 32 32">
<path fill="#ff9f0e" style="fill: var(--color1, #ff9f0e)" d="M0 16c0 8.837 7.163 16 16 16s16-7.163 16-16c0-8.837-7.163-16-16-16s-16 7.163-16 16z"></path>
<path fill="#fff" style="fill: var(--color2, #fff)" d="M10.395 16.514c-0.284-0.284-0.284-0.745 0-1.028l4.628-4.628c0.284-0.284 0.744-0.284 1.028 0s0.284 0.745 0 1.028l-4.114 4.114 4.114 4.114c0.284 0.284 0.284 0.744 0 1.029s-0.745 0.284-1.028 0l-4.628-4.628zM22.545 16.727h-11.636v-1.455h11.636v1.455z"></path>
</symbol>
<symbol id="icon-icon1" viewBox="0 0 32 32">
<path d="M11.138 4.862c-0.26-0.26-0.682-0.26-0.943 0l-4.243 4.243c-0.26 0.26-0.26 0.682 0 0.943s0.682 0.26 0.943 0l3.771-3.771 3.771 3.771c0.26 0.26 0.683 0.26 0.943 0s0.26-0.682 0-0.943l-4.243-4.243zM10 5.333v21.333h1.333v-21.333h-1.333z"></path>
<path d="M20.862 27.138c0.26 0.26 0.683 0.26 0.943 0l4.243-4.243c0.26-0.26 0.26-0.683 0-0.943s-0.682-0.26-0.943 0l-3.771 3.771-3.771-3.771c-0.26-0.26-0.683-0.26-0.943 0s-0.26 0.682 0 0.943l4.243 4.243zM20.667 5.333v21.333h1.333v-21.333h-1.333z"></path>
</symbol>
<symbol id="icon-menu" viewBox="0 0 32 32">
<path d="M29.333 24.007c0 0.733-0.595 1.327-1.327 1.327h-10.68c-0.352 0-0.689-0.14-0.938-0.389s-0.389-0.586-0.389-0.938c0-0.352 0.14-0.689 0.389-0.938s0.586-0.389 0.938-0.389h10.68c0.733 0 1.327 0.593 1.327 1.327zM29.333 16c0 0.733-0.595 1.327-1.327 1.327h-24.013c-0.352 0-0.689-0.14-0.938-0.389s-0.389-0.586-0.389-0.938c0-0.352 0.14-0.689 0.389-0.938s0.586-0.389 0.938-0.389h24.013c0.733 0 1.327 0.595 1.327 1.327zM28.007 9.32c0.352 0 0.689-0.14 0.938-0.389s0.389-0.586 0.389-0.938c0-0.352-0.14-0.689-0.389-0.938s-0.586-0.389-0.938-0.389h-16.013c-0.174 0-0.347 0.034-0.508 0.101s-0.307 0.164-0.43 0.288c-0.123 0.123-0.221 0.269-0.288 0.43s-0.101 0.333-0.101 0.508c0 0.174 0.034 0.347 0.101 0.508s0.164 0.307 0.288 0.43c0.123 0.123 0.269 0.221 0.43 0.288s0.333 0.101 0.508 0.101h16.013z"></path>
</symbol>
<symbol id="icon-line-md_menu-to-close-transition" viewBox="0 0 32 32">
<path stroke-linejoin="miter" stroke-linecap="round" stroke-miterlimit="4" stroke-width="2.6667" d="M12 8l8 8 8-8"></path>
<path stroke-linejoin="miter" stroke-linecap="round" stroke-miterlimit="4" stroke-width="2.6667" d="M12 24l8-8 8 8"></path>
</symbol>
<symbol id="icon-material-symbols_alternate-email" viewBox="0 0 32 32">
<path d="M16 29.333c-1.822 0-3.544-0.35-5.167-1.051s-3.039-1.655-4.249-2.867c-1.212-1.211-2.167-2.627-2.867-4.249s-1.051-3.344-1.051-5.167c0-1.844 0.35-3.572 1.051-5.183s1.655-3.023 2.867-4.233c1.211-1.212 2.627-2.168 4.249-2.868s3.344-1.049 5.167-1.049c1.844 0 3.572 0.35 5.183 1.049s3.023 1.656 4.233 2.868c1.212 1.211 2.167 2.622 2.867 4.233s1.051 3.338 1.051 5.183v1.933c0 1.311-0.45 2.428-1.349 3.349s-2.006 1.384-3.317 1.384c-0.8 0-1.544-0.178-2.233-0.533s-1.256-0.822-1.7-1.4c-0.6 0.6-1.305 1.072-2.116 1.417s-1.684 0.516-2.617 0.516c-1.844 0-3.416-0.65-4.716-1.951s-1.951-2.872-1.951-4.716 0.65-3.417 1.951-4.717c1.3-1.3 2.872-1.949 4.716-1.949s3.417 0.65 4.717 1.949c1.3 1.3 1.949 2.873 1.949 4.717v1.933c0 0.644 0.2 1.15 0.6 1.516s0.867 0.551 1.4 0.551 1-0.184 1.4-0.551c0.4-0.366 0.6-0.872 0.6-1.516v-1.933c0-2.911-1.050-5.417-3.151-7.517s-4.605-3.149-7.516-3.149c-2.911 0-5.417 1.050-7.517 3.149s-3.149 4.606-3.149 7.517c0 2.911 1.050 5.416 3.149 7.516s4.606 3.151 7.517 3.151h6.667v2.667h-6.667zM16 20c1.111 0 2.056-0.389 2.833-1.167s1.167-1.722 1.167-2.833c0-1.111-0.389-2.056-1.167-2.833s-1.722-1.167-2.833-1.167-2.056 0.389-2.833 1.167c-0.778 0.778-1.167 1.722-1.167 2.833s0.389 2.056 1.167 2.833c0.778 0.778 1.722 1.167 2.833 1.167z"></path>
</symbol>
<symbol id="icon-material-symbols_phone-in-talk-watchface-indicator-outline" viewBox="0 0 32 32">
<path d="M27.833 29.333c-3.467 0-6.728-0.656-9.783-1.967s-5.723-3.105-8-5.383c-2.278-2.278-4.078-4.945-5.4-8s-1.984-6.328-1.984-9.817c-0.022-0.4 0.111-0.75 0.4-1.051s0.644-0.449 1.067-0.449h5.2c0.4 0 0.744 0.15 1.033 0.449s0.433 0.662 0.433 1.084c0 0.978 0.067 1.9 0.2 2.767s0.344 1.689 0.633 2.467c0.111 0.244 0.133 0.494 0.067 0.749s-0.2 0.495-0.4 0.717l-3.333 3.333c0.956 1.956 2.311 3.811 4.067 5.567s3.644 3.156 5.667 4.2l3.333-3.333c0.2-0.2 0.433-0.333 0.7-0.4s0.533-0.044 0.8 0.067c0.822 0.267 1.672 0.472 2.549 0.616s1.784 0.217 2.717 0.217c0.422 0 0.783 0.156 1.084 0.467 0.299 0.311 0.449 0.689 0.449 1.133v5.1c0 0.4-0.145 0.744-0.433 1.033s-0.645 0.433-1.067 0.433zM20.167 25.333c1 0.378 2.044 0.678 3.133 0.9s2.211 0.367 3.367 0.433v-2.867c-0.689-0.044-1.394-0.122-2.116-0.233s-1.44-0.278-2.151-0.5l-2.233 2.267zM26.667 16c0-2.978-1.033-5.5-3.1-7.567s-4.589-3.1-7.567-3.1v-2.667c1.844 0 3.578 0.35 5.2 1.049s3.033 1.651 4.233 2.851 2.15 2.611 2.849 4.233c0.7 1.622 1.051 3.356 1.051 5.2h-2.667zM21.333 16c0-1.467-0.522-2.722-1.567-3.767s-2.3-1.567-3.767-1.567v-2.667c2.222 0 4.111 0.778 5.667 2.333s2.333 3.444 2.333 5.667h-2.667zM6.667 11.767l2.2-2.233c-0.178-0.644-0.328-1.322-0.451-2.033s-0.205-1.433-0.249-2.167h-2.8c0.044 1.067 0.178 2.133 0.4 3.2s0.522 2.144 0.9 3.233z"></path>
</symbol>
<symbol id="icon-material-symbols_sound-detection-dog-barking" viewBox="0 0 32 32">
<path d="M6.467 29.333v-12.8l-0.367-0.367c-0.244-0.244-0.433-0.533-0.567-0.867s-0.2-0.678-0.2-1.033c0-0.356 0.067-0.694 0.2-1.016s0.322-0.606 0.567-0.851l4.367-4.4h5.333l5.333-5.333 2.733 2.733c0.889 0.889 1.578 1.894 2.067 3.016s0.733 2.317 0.733 3.584-0.244 2.461-0.733 3.584c-0.489 1.122-1.178 2.127-2.067 3.016l-2.733 2.733v8h-14.667zM9.133 26.667h9.333v-6.433l3.5-3.5c0.644-0.644 1.144-1.367 1.5-2.167s0.533-1.656 0.533-2.567c0-0.889-0.184-1.733-0.551-2.533s-0.86-1.522-1.483-2.167l-0.833-0.867-4.233 4.233h-5.333l-0.767 0.767 2.233 2.233c0.622 0.622 1.106 1.339 1.451 2.149s0.516 1.662 0.516 2.551-0.167 1.739-0.5 2.551c-0.333 0.811-0.822 1.538-1.467 2.183l-3.9-3.9v7.467z"></path>
</symbol>
<symbol id="icon-people" viewBox="0 0 32 32">
<path d="M11.384 9.714c0-1.125 0.446-2.204 1.24-3s1.871-1.243 2.995-1.243c1.123 0 2.201 0.447 2.995 1.243s1.241 1.875 1.241 3c0 1.125-0.446 2.204-1.241 3s-1.872 1.243-2.995 1.243c-1.123 0-2.201-0.447-2.995-1.243s-1.24-1.875-1.24-3zM15.619 3.048c-1.765 0-3.458 0.702-4.706 1.953s-1.949 2.946-1.949 4.714c0 1.768 0.701 3.464 1.949 4.714s2.941 1.953 4.706 1.953c1.765 0 3.458-0.702 4.706-1.953s1.949-2.946 1.949-4.714c0-1.768-0.701-3.464-1.949-4.714s-2.941-1.953-4.706-1.953zM5.333 22.441c0-0.964 0.382-1.889 1.063-2.571s1.604-1.065 2.567-1.065h13.311c0.963 0 1.886 0.383 2.567 1.065s1.063 1.607 1.063 2.571v0.274c-0.002 0.113-0.011 0.226-0.024 0.338-0.024 0.21-0.069 0.495-0.157 0.831-0.232 0.889-0.644 1.721-1.209 2.445-1.416 1.821-4.079 3.384-8.895 3.384s-7.478-1.564-8.895-3.384c-0.565-0.724-0.977-1.556-1.21-2.445-0.092-0.357-0.152-0.721-0.177-1.088-0.001-0.027-0.002-0.054-0.002-0.081v-0.028l-0.001-0.010v-0.236zM7.753 22.657v0.015c0.017 0.204 0.051 0.406 0.103 0.604 0.109 0.422 0.33 0.991 0.776 1.565 0.853 1.096 2.728 2.45 6.987 2.45s6.135-1.354 6.987-2.449c0.362-0.464 0.625-0.997 0.774-1.566 0.052-0.198 0.087-0.4 0.104-0.604l0.001-0.015v-0.216c0-0.321-0.128-0.63-0.355-0.857s-0.535-0.355-0.856-0.355h-13.312c-0.321 0-0.629 0.128-0.856 0.355s-0.354 0.536-0.354 0.857v0.216z"></path>
</symbol>
<symbol id="icon-basket" viewBox="0 0 32 32">
<path d="M1.5 12.8h29.001v-2.133h-29.001v2.133zM29.867 12.167v0.937h2.133v-0.937h-2.133zM26.423 29.867h-20.847v2.133h20.847v-2.133zM2.133 13.103v-0.937h-2.133v0.937h2.133zM6.178 30.238c-2.66-5.32-4.045-11.187-4.045-17.135h-2.133c0 6.28 1.461 12.474 4.271 18.091l1.907-0.956zM5.577 29.867c0.256 0 0.489 0.145 0.602 0.371l-1.907 0.956c0.121 0.242 0.308 0.446 0.538 0.588s0.496 0.218 0.767 0.218v-2.133zM25.822 30.238c0.056-0.112 0.142-0.205 0.248-0.271s0.229-0.1 0.354-0.1v2.133c0.555 0 1.058-0.311 1.306-0.806l-1.907-0.956zM29.867 13.103c0 5.948-1.387 11.814-4.045 17.135l1.907 0.956c2.809-5.617 4.271-11.811 4.271-18.091h-2.133zM30.5 12.8c-0.168 0-0.329-0.067-0.448-0.186s-0.186-0.28-0.186-0.448h2.133c0-0.398-0.158-0.779-0.439-1.060s-0.663-0.439-1.061-0.439v2.133zM1.5 10.667c-0.398 0-0.779 0.158-1.060 0.439s-0.439 0.663-0.439 1.060h2.133c0 0.168-0.067 0.329-0.186 0.448s-0.28 0.186-0.448 0.186v-2.133zM8.382 12.282l6.4-10.667-1.833-1.097-6.4 10.667 1.833 1.097zM17.218 1.615l6.4 10.667 1.83-1.097-6.4-10.667-1.83 1.097zM10.667 21.333h10.667v-2.133h-10.667v2.133z"></path>
</symbol>
<symbol id="icon-facebook" viewBox="0 0 32 32">
<path d="M29 16c0-2.571-0.762-5.085-2.191-7.222s-3.459-3.804-5.834-4.788-4.989-1.241-7.511-0.74c-2.522 0.502-4.838 1.74-6.656 3.558s-3.056 4.134-3.558 6.656c-0.502 2.522-0.244 5.136 0.74 7.511s2.65 4.406 4.788 5.834c2.138 1.428 4.651 2.191 7.222 2.191 3.447-0.003 6.752-1.374 9.189-3.811s3.808-5.742 3.811-9.189zM17 26.95v-7.95h3c0.265 0 0.52-0.105 0.707-0.293s0.293-0.442 0.293-0.707c0-0.265-0.105-0.52-0.293-0.707s-0.442-0.293-0.707-0.293h-3v-3c0-0.53 0.211-1.039 0.586-1.414s0.884-0.586 1.414-0.586h2c0.265 0 0.52-0.105 0.707-0.293s0.293-0.442 0.293-0.707c0-0.265-0.105-0.52-0.293-0.707s-0.442-0.293-0.707-0.293h-2c-1.060 0.003-2.075 0.426-2.825 1.175s-1.172 1.765-1.175 2.825v3h-3c-0.265 0-0.52 0.105-0.707 0.293s-0.293 0.442-0.293 0.707c0 0.265 0.105 0.52 0.293 0.707s0.442 0.293 0.707 0.293h3v7.95c-2.819-0.257-5.43-1.591-7.291-3.725s-2.827-4.902-2.698-7.73 1.343-5.497 3.389-7.453c2.047-1.956 4.768-3.047 7.599-3.047s5.553 1.091 7.599 3.047c2.047 1.956 3.261 4.625 3.389 7.453s-0.837 5.596-2.698 7.73c-1.86 2.134-4.472 3.468-7.291 3.725z"></path>
</symbol>
<symbol id="icon-instagram" viewBox="0 0 32 32">
<path stroke-linejoin="round" stroke-linecap="round" stroke-miterlimit="4" stroke-width="2" d="M16 21.333c1.415 0 2.771-0.562 3.771-1.562s1.562-2.357 1.562-3.771c0-1.415-0.562-2.771-1.562-3.771s-2.357-1.562-3.771-1.562-2.771 0.562-3.771 1.562c-1 1-1.562 2.357-1.562 3.771s0.562 2.771 1.562 3.771c1 1 2.357 1.562 3.771 1.562z"></path>
<path stroke-linejoin="miter" stroke-linecap="butt" stroke-miterlimit="4" stroke-width="2" d="M4 21.333v-10.667c0-1.768 0.702-3.464 1.953-4.714s2.946-1.953 4.714-1.953h10.667c1.768 0 3.464 0.702 4.714 1.953s1.953 2.946 1.953 4.714v10.667c0 1.768-0.702 3.464-1.953 4.714s-2.946 1.953-4.714 1.953h-10.667c-1.768 0-3.464-0.702-4.714-1.953s-1.953-2.946-1.953-4.714z"></path>
<path stroke-linejoin="round" stroke-linecap="round" stroke-miterlimit="4" stroke-width="2" d="M23.333 8.681l0.014-0.015"></path>
</symbol>
<symbol id="icon-star" viewBox="0 0 34 32">
<path d="M16.231 0l3.832 11.793h12.4l-10.032 7.288 3.832 11.793-10.032-7.288-10.032 7.288 3.832-11.793-10.032-7.288h12.4l3.832-11.793z"></path>
</symbol>
</defs>
</svg>
